<?xml version="1.0" encoding="utf-8"?>
<svg viewBox="0 0 1000 762" xmlns="http://www.w3.org/2000/svg">
  <defs>
    <pattern id="pattern-1" x="0" y="0" width="20" height="20" patternUnits="userSpaceOnUse" viewBox="0 0 100 100">
      <path d="M 0 0 L 50 0 L 50 100 L 0 100 Z" style="fill: black;"/>
    </pattern>
  </defs>
  <path d="M 38.76 581.95 L 37.712 500.543 L 16.137 500.286 C 13.312 490.526 5.349 490.013 5.349 490.013 L 5.349 400.888 C 16.136 400.632 15.623 389.074 15.623 389.074 L 33.859 389.074 L 33.345 277.091 L 13.568 276.834 C 12.541 267.845 5.606 267.074 5.606 267.074 L 5.349 176.152 C 13.311 174.097 13.054 165.364 13.054 165.364 L 32.818 165.887 L 31.113 19.234 C 31.113 19.234 30.814 5.831 42.807 5.523 C 54.801 5.216 935.862 3.678 935.862 3.678 L 957.39 24.896 L 957.698 186.349 L 993.063 222.636 L 995.215 685.155 L 960.772 719.598 L 960.465 743.893 C 960.465 743.893 961.079 753.426 951.546 754.656 C 942.015 755.885 52.648 756.502 52.648 756.502 C 52.648 756.502 43.731 756.194 41.578 747.583 L 40.962 712.525 L 16.579 712.588 L 15.096 582.272 L 38.76 581.95 Z" style="stroke: rgb(0, 0, 0); fill: rgb(255, 255, 255); stroke-linejoin: round; fill-rule: nonzero; fill-opacity: 1; stroke-width: 10;"/>
</svg>