<?xml version="1.0" encoding="utf-8"?>
<svg x="0in" y="0in" width="0.800213in" height="0.900008in" viewBox="0 0 57.6153 64.8006" xmlns="http://www.w3.org/2000/svg">
  <desc>
    <referencefile xmlns="http://www.w3.org/1999/xhtml">MAX31855_breadboard.svg</referencefile>
  </desc>
  <desc>Fritzing breadboard generated by brd2svg</desc>
  <path d="M57.6153,7.2L57.6153,57.6006A7.2,7.2,0,0,1,50.4153,64.8006L7.2,64.8006A7.2,7.2,0,0,1,0,57.6006L0,7.2A7.2,7.2,0,0,1,7.2,0L50.4153,0A7.2,7.2,0,0,1,57.6153,7.2M22.2661,10.8363a1.41732,1.41732,0,1,0,2.83465,0,1.41732,1.41732,0,1,0,-2.83465,0zM32.1874,10.8363a1.41732,1.41732,0,1,0,2.83465,0,1.41732,1.41732,0,1,0,-2.83465,0zM9.3685,59.0763a1.41732,1.41732,0,1,0,2.83465,0,1.41732,1.41732,0,1,0,-2.83465,0zM16.5685,59.0763a1.41732,1.41732,0,1,0,2.83465,0,1.41732,1.41732,0,1,0,-2.83465,0zM23.7685,59.0763a1.41732,1.41732,0,1,0,2.83465,0,1.41732,1.41732,0,1,0,-2.83465,0zM30.9685,59.0763a1.41732,1.41732,0,1,0,2.83465,0,1.41732,1.41732,0,1,0,-2.83465,0zM38.1685,59.0763a1.41732,1.41732,0,1,0,2.83465,0,1.41732,1.41732,0,1,0,-2.83465,0zM45.3685,59.0763a1.41732,1.41732,0,1,0,2.83465,0,1.41732,1.41732,0,1,0,-2.83465,0zM47.2677,7.23629a3.11811,3.11811,0,1,0,6.23622,0,3.11811,3.11811,0,1,0,-6.23622,0zM4.06772,7.23629a3.11811,3.11811,0,1,0,6.23622,0,3.11811,3.11811,0,1,0,-6.23622,0z" style="stroke: none; fill: rgb(1, 76, 177); stroke-width: 0;" transform="matrix(-1, 1.2246467991473532e-16, -1.2246467991473532e-16, -1, 57.61530189280164, 64.80060430483718)"/>
  <path d="M 30.94580078125 62.676300048828125 L 32.385799407958984 64.11630249023438" style="stroke: white; stroke-width: 0.72; stroke-linecap: round;" transform="matrix(-1, 1.2246467991473532e-16, -1.2246467991473532e-16, -1, 57.61530189280164, 64.80060430483718)"/>
  <path d="M 32.385799407958984 64.11630249023438 L 33.825801849365234 62.676300048828125" style="stroke: white; stroke-width: 0.72; stroke-linecap: round;" transform="matrix(-1, 1.2246467991473532e-16, -1.2246467991473532e-16, -1, 57.61530189280165, 64.80060430483718)"/>
  <path d="M 33.825801849365234 62.676300048828125 L 30.94580078125 62.676300048828125" style="stroke: white; stroke-width: 0.72; stroke-linecap: round;" transform="matrix(-1, 1.2246467991473532e-16, -1.2246467991473532e-16, -1, 57.61530189280165, 64.80060430483718)"/>
  <path d="M 39.58580017089844 62.676300048828125 L 38.14580154418945 64.11630249023438" style="stroke: white; stroke-width: 0.72; stroke-linecap: round;" transform="matrix(-1, 1.2246467991473532e-16, -1.2246467991473532e-16, -1, 57.61530189280165, 64.80060430483718)"/>
  <path d="M 38.14580154418945 64.11630249023438 L 41.02579879760742 64.11630249023438" style="stroke: white; stroke-width: 0.72; stroke-linecap: round;" transform="matrix(-1, 1.2246467991473532e-16, -1.2246467991473532e-16, -1, 57.61530189280165, 64.80060430483718)"/>
  <path d="M 41.02579879760742 64.11630249023438 L 39.58580017089844 62.676300048828125" style="stroke: white; stroke-width: 0.72; stroke-linecap: round;" transform="matrix(-1, 1.2246467991473532e-16, -1.2246467991473532e-16, -1, 57.61530189280165, 64.80060430483718)"/>
  <path d="M 45.34579849243164 64.11630249023438 L 48.225799560546875 64.11630249023438" style="stroke: white; stroke-width: 0.72; stroke-linecap: round;" transform="matrix(-1, 1.2246467991473532e-16, -1.2246467991473532e-16, -1, 57.61530189280165, 64.80060430483718)"/>
  <path d="M 48.225799560546875 64.11630249023438 L 46.78580093383789 62.676300048828125" style="stroke: white; stroke-width: 0.72; stroke-linecap: round;" transform="matrix(-1, 1.2246467991473532e-16, -1.2246467991473532e-16, -1, 57.61530189280165, 64.80060430483718)"/>
  <path d="M 46.78580093383789 62.676300048828125 L 45.34579849243164 64.11630249023438" style="stroke: white; stroke-width: 0.72; stroke-linecap: round;" transform="matrix(-1, 1.2246467991473532e-16, -1.2246467991473532e-16, -1, 57.61530189280165, 64.80060430483718)"/>
  <path d="M 9.345820426940918 64.11630249023438 L 12.225799560546875 64.11630249023438" style="stroke: white; stroke-width: 0.72; stroke-linecap: round;" transform="matrix(-1, 1.2246467991473532e-16, -1.2246467991473532e-16, -1, 57.61530189280165, 64.80060430483718)"/>
  <path d="M 12.225799560546875 64.11630249023438 L 10.785799980163574 62.676300048828125" style="stroke: white; stroke-width: 0.72; stroke-linecap: round;" transform="matrix(-1, 1.2246467991473532e-16, -1.2246467991473532e-16, -1, 57.61530189280165, 64.80060430483718)"/>
  <path d="M 10.785799980163574 62.676300048828125 L 9.345820426940918 64.11630249023438" style="stroke: white; stroke-width: 0.72; stroke-linecap: round;" transform="matrix(-1, 1.2246467991473532e-16, -1.2246467991473532e-16, -1, 57.61530189280165, 64.80060430483718)"/>
  <path d="M 23.745800018310547 64.11630249023438 L 26.62579917907715 64.11630249023438" style="stroke: white; stroke-width: 0.72; stroke-linecap: round;" transform="matrix(-1, 1.2246467991473532e-16, -1.2246467991473532e-16, -1, 57.61530189280165, 64.80060430483718)"/>
  <path d="M 26.62579917907715 64.11630249023438 L 25.185800552368164 62.676300048828125" style="stroke: white; stroke-width: 0.72; stroke-linecap: round;" transform="matrix(-1, 1.2246467991473532e-16, -1.2246467991473532e-16, -1, 57.61530189280165, 64.80060430483718)"/>
  <path d="M 25.185800552368164 62.676300048828125 L 23.745800018310547 64.11630249023438" style="stroke: white; stroke-width: 0.72; stroke-linecap: round;" transform="matrix(-1, 1.2246467991473532e-16, -1.2246467991473532e-16, -1, 57.61530189280165, 64.80060430483718)"/>
  <path d="M 16.545799255371094 62.676300048828125 L 17.98579978942871 64.11630249023438" style="stroke: white; stroke-width: 0.72; stroke-linecap: round;" transform="matrix(-1, 1.2246467991473532e-16, -1.2246467991473532e-16, -1, 57.61530189280165, 64.80060430483718)"/>
  <path d="M 17.98579978942871 64.11630249023438 L 19.425800323486328 62.676300048828125" style="stroke: white; stroke-width: 0.72; stroke-linecap: round;" transform="matrix(-1, 1.2246467991473532e-16, -1.2246467991473532e-16, -1, 57.61530189280165, 64.80060430483718)"/>
  <path d="M 19.425800323486328 62.676300048828125 L 16.545799255371094 62.676300048828125" style="stroke: white; stroke-width: 0.72; stroke-linecap: round;" transform="matrix(-1, 1.2246467991473532e-16, -1.2246467991473532e-16, -1, 57.61530189280165, 64.80060430483718)"/>
  <g transform="matrix(-1, 1.2246467991473532e-16, -1.2246467991473532e-16, -1, 57.61530189280165, 64.80060430483718)">
    <g transform="matrix(1, 0, 0, 1, 41.0258, 55.4763)">
      <g>
        <g>
          <g transform="rotate(270)">
            <g>
              <g>
                <text x="0" y="0" style="stroke: none; fill: rgb(255, 255, 255); font-family: OCRA; font-size: 3.3408px; stroke-width: 0; text-anchor: start;">CS</text>
              </g>
            </g>
          </g>
        </g>
      </g>
    </g>
  </g>
  <g transform="matrix(-1, 1.2246467991473532e-16, -1.2246467991473532e-16, -1, 57.61530189280165, 64.80060430483718)">
    <g transform="matrix(1, 0, 0, 1, 26.6258, 55.4763)">
      <g>
        <g>
          <g transform="rotate(270)">
            <g>
              <g>
                <text x="0" y="0" style="stroke: none; fill: rgb(255, 255, 255); font-family: OCRA; font-size: 3.3408px; stroke-width: 0; text-anchor: start;">GND</text>
              </g>
            </g>
          </g>
        </g>
      </g>
    </g>
  </g>
  <g transform="matrix(-1, 1.2246467991473532e-16, -1.2246467991473532e-16, -1, 57.61530189280165, 64.80060430483718)">
    <g transform="matrix(1, 0, 0, 1, 33.8258, 55.4763)">
      <g>
        <g>
          <g transform="rotate(270)">
            <g>
              <g>
                <text x="0" y="0" style="stroke: none; fill: rgb(255, 255, 255); font-family: OCRA; font-size: 3.3408px; stroke-width: 0; text-anchor: start;">DO</text>
              </g>
            </g>
          </g>
        </g>
      </g>
    </g>
  </g>
  <g transform="matrix(-1, 1.2246467991473532e-16, -1.2246467991473532e-16, -1, 57.61530189280165, 64.80060430483718)">
    <g transform="matrix(1, 0, 0, 1, 48.2258, 55.4763)">
      <g>
        <g>
          <g transform="rotate(270)">
            <g>
              <g>
                <text x="0" y="0" style="stroke: none; fill: rgb(255, 255, 255); font-family: OCRA; font-size: 3.3408px; stroke-width: 0; text-anchor: start;">CLK</text>
              </g>
            </g>
          </g>
        </g>
      </g>
    </g>
  </g>
  <g transform="matrix(-1, 1.2246467991473532e-16, -1.2246467991473532e-16, -1, 57.61530189280165, 64.80060430483718)">
    <g transform="matrix(1, 0, 0, 1, 12.2258, 55.4763)">
      <g>
        <g>
          <g transform="rotate(270)">
            <g>
              <g>
                <text x="0" y="0" style="stroke: none; fill: rgb(255, 255, 255); font-family: OCRA; font-size: 3.3408px; stroke-width: 0; text-anchor: start;">Vin</text>
              </g>
            </g>
          </g>
        </g>
      </g>
    </g>
  </g>
  <g transform="matrix(-1, 1.2246467991473532e-16, -1.2246467991473532e-16, -1, 57.61530189280165, 64.80060430483718)">
    <g transform="matrix(1, 0, 0, 1, 19.4258, 55.4763)">
      <g>
        <g>
          <g transform="rotate(270)">
            <g>
              <g>
                <text x="0" y="0" style="stroke: none; fill: rgb(255, 255, 255); font-family: OCRA; font-size: 3.3408px; stroke-width: 0; text-anchor: start;">3Vo</text>
              </g>
            </g>
          </g>
        </g>
      </g>
    </g>
  </g>
  <g transform="matrix(-1, 1.2246467991473532e-16, -1.2246467991473532e-16, -1, 57.61530189280165, 64.80060430483718)">
    <g/>
  </g>
  <g transform="matrix(-1, 1.2246467991473532e-16, -1.2246467991473532e-16, -1, 57.61530189280165, 64.80060430483718)">
    <g/>
  </g>
  <g transform="matrix(-1, 1.2246467991473532e-16, -1.2246467991473532e-16, -1, 57.61530189280165, 64.80060430483718)">
    <g>
      <path d="M 24.10580062866211 21.996299743652344 L 34.905799865722656 21.996299743652344" style="stroke: white; stroke-width: 0.576; stroke-linecap: round;"/>
      <path d="M 34.905799865722656 21.996299743652344 L 34.905799865722656 27.036300659179688" style="stroke: white; stroke-width: 0.576; stroke-linecap: round;"/>
      <path d="M 34.905799865722656 27.036300659179688 L 24.10580062866211 27.036300659179688" style="stroke: white; stroke-width: 0.576; stroke-linecap: round;"/>
      <path d="M 24.10580062866211 27.036300659179688 L 24.10580062866211 21.996299743652344" style="stroke: white; stroke-width: 0.576; stroke-linecap: round;"/>
    </g>
  </g>
  <g transform="matrix(-1, 1.2246467991473532e-16, -1.2246467991473532e-16, -1, 57.61530189280165, 64.80060430483718)">
    <g>
      <path d="M 45.81639862060547 36.35369873046875 L 50.63529968261719 36.35369873046875" style="stroke: white; stroke-width: 0.36; stroke-linecap: round;"/>
      <path d="M 50.63529968261719 36.35369873046875 L 50.63529968261719 40.03879928588867" style="stroke: white; stroke-width: 0.36; stroke-linecap: round;"/>
      <path d="M 50.63529968261719 40.03879928588867 L 45.81639862060547 40.03879928588867" style="stroke: white; stroke-width: 0.36; stroke-linecap: round;"/>
      <path d="M 45.81639862060547 40.03879928588867 L 45.81639862060547 36.35369873046875" style="stroke: white; stroke-width: 0.36; stroke-linecap: round;"/>
      <path d="M 49.35969924926758 36.49549865722656 L 49.35969924926758 39.897098541259766" style="stroke: white; stroke-width: 0.36; stroke-linecap: round;"/>
      <path d="M 49.35969924926758 39.897098541259766 L 49.07619857788086 39.897098541259766" style="stroke: white; stroke-width: 0.36; stroke-linecap: round;"/>
      <path d="M 49.07619857788086 39.897098541259766 L 49.07619857788086 36.49549865722656" style="stroke: white; stroke-width: 0.36; stroke-linecap: round;"/>
    </g>
  </g>
  <g transform="matrix(-1, 1.2246467991473532e-16, -1.2246467991473532e-16, -1, 57.61530189280165, 64.80060430483718)">
    <g>
      <path d="M 45.81639862060547 30.593700408935547 L 50.63529968261719 30.593700408935547" style="stroke: white; stroke-width: 0.36; stroke-linecap: round;"/>
      <path d="M 50.63529968261719 30.593700408935547 L 50.63529968261719 34.27880096435547" style="stroke: white; stroke-width: 0.36; stroke-linecap: round;"/>
      <path d="M 50.63529968261719 34.27880096435547 L 45.81639862060547 34.27880096435547" style="stroke: white; stroke-width: 0.36; stroke-linecap: round;"/>
      <path d="M 45.81639862060547 34.27880096435547 L 45.81639862060547 30.593700408935547" style="stroke: white; stroke-width: 0.36; stroke-linecap: round;"/>
      <path d="M 49.35969924926758 30.73550033569336 L 49.35969924926758 34.13710021972656" style="stroke: white; stroke-width: 0.36; stroke-linecap: round;"/>
      <path d="M 49.35969924926758 34.13710021972656 L 49.07619857788086 34.13710021972656" style="stroke: white; stroke-width: 0.36; stroke-linecap: round;"/>
      <path d="M 49.07619857788086 34.13710021972656 L 49.07619857788086 30.73550033569336" style="stroke: white; stroke-width: 0.36; stroke-linecap: round;"/>
    </g>
  </g>
  <g transform="matrix(-1, 1.2246467991473532e-16, -1.2246467991473532e-16, -1, 57.61530189280165, 64.80060430483718)">
    <g>
      <path d="M 1.7858200073242188 16.956300735473633 L 12.585800170898438 16.956300735473633" style="stroke: white; stroke-width: 0.576; stroke-linecap: round;"/>
      <path d="M 12.585800170898438 16.956300735473633 L 12.585800170898438 21.996299743652344" style="stroke: white; stroke-width: 0.576; stroke-linecap: round;"/>
      <path d="M 12.585800170898438 21.996299743652344 L 1.7858200073242188 21.996299743652344" style="stroke: white; stroke-width: 0.576; stroke-linecap: round;"/>
      <path d="M 1.7858200073242188 21.996299743652344 L 1.7858200073242188 16.956300735473633" style="stroke: white; stroke-width: 0.576; stroke-linecap: round;"/>
    </g>
  </g>
  <g transform="matrix(-1, 1.2246467991473532e-16, -1.2246467991473532e-16, -1, 57.61530189280165, 64.80060430483718)">
    <g>
      <path d="M 55.78580093383789 21.27630043029785 L 44.985801696777344 21.27630043029785" style="stroke: white; stroke-width: 0.576; stroke-linecap: round;"/>
      <path d="M 44.985801696777344 21.27630043029785 L 44.985801696777344 16.236299514770508" style="stroke: white; stroke-width: 0.576; stroke-linecap: round;"/>
      <path d="M 44.985801696777344 16.236299514770508 L 55.78580093383789 16.236299514770508" style="stroke: white; stroke-width: 0.576; stroke-linecap: round;"/>
      <path d="M 55.78580093383789 16.236299514770508 L 55.78580093383789 21.27630043029785" style="stroke: white; stroke-width: 0.576; stroke-linecap: round;"/>
    </g>
  </g>
  <g transform="matrix(-1, 1.2246467991473532e-16, -1.2246467991473532e-16, -1, 57.61530189280165, 64.80060430483718)">
    <g>
      <path d="M 34.32979965209961 42.15629959106445 L 34.32979965209961 29.91629981994629" style="stroke: white; stroke-width: 0.432; stroke-linecap: round;"/>
      <path d="M23.2418,42.1563A1.08,1.08,0,0,0,24.3218,43.2363" style="stroke: white; fill: none; stroke-width: 0.432;"/>
      <path d="M34.3298,29.9163A1.08,1.08,0,0,0,33.2498,28.8363" style="stroke: white; fill: none; stroke-width: 0.432;"/>
      <path d="M33.2498,43.2363A1.08,1.08,0,0,0,34.3298,42.1563" style="stroke: white; fill: none; stroke-width: 0.432;"/>
      <path d="M24.3218,28.8363A1.08,1.08,0,0,0,23.2418,29.9163" style="stroke: white; fill: none; stroke-width: 0.432;"/>
      <path d="M 23.24180030822754 29.91629981994629 L 23.24180030822754 42.15629959106445" style="stroke: white; stroke-width: 0.432; stroke-linecap: round;"/>
      <path d="M 24.321800231933594 43.23630142211914 L 33.24980163574219 43.23630142211914" style="stroke: white; stroke-width: 0.432; stroke-linecap: round;"/>
      <path d="M 33.24980163574219 28.836299896240234 L 24.321800231933594 28.836299896240234" style="stroke: white; stroke-width: 0.432; stroke-linecap: round;"/>
      <path d="M27.3458,28.8363A1.44,1.44,0,1,0,30.2258,28.8363" style="stroke: white; fill: none; stroke-width: 0.432;"/>
      <path d="M 24.249799728393555 28.836299896240234 L 24.249799728393555 43.23630142211914" style="stroke: white; stroke-width: 0.144; stroke-linecap: round;"/>
    </g>
  </g>
  <g transform="matrix(-1, 1.2246467991473532e-16, -1.2246467991473532e-16, -1, 57.61530189280165, 64.80060430483718)">
    <g>
      <path d="M 4.5949602127075195 37.61240005493164 L 4.5949602127075195 33.020198822021484" style="stroke: white; stroke-width: 0.432; stroke-linecap: round;"/>
      <path d="M 12.656700134277344 33.020198822021484 L 12.656700134277344 37.61240005493164" style="stroke: white; stroke-width: 0.432; stroke-linecap: round;"/>
      <path d="M 10.105500221252441 37.61240005493164 L 7.146140098571777 37.61240005493164" style="stroke: white; stroke-width: 0.432; stroke-linecap: round;"/>
      <path d="M 9.839090347290039 33.020198822021484 L 10.105500221252441 33.020198822021484" style="stroke: white; stroke-width: 0.432; stroke-linecap: round;"/>
      <path d="M 7.146140098571777 33.020198822021484 L 7.4126200675964355 33.020198822021484" style="stroke: white; stroke-width: 0.432; stroke-linecap: round;"/>
      <path d="M 12.390299797058105 33.020198822021484 L 12.656700134277344 33.020198822021484" style="stroke: white; stroke-width: 0.432; stroke-linecap: round;"/>
      <path d="M 4.5949602127075195 33.020198822021484 L 4.861420154571533 33.020198822021484" style="stroke: white; stroke-width: 0.432; stroke-linecap: round;"/>
      <path d="M 4.861420154571533 37.61240005493164 L 4.5949602127075195 37.61240005493164" style="stroke: white; stroke-width: 0.432; stroke-linecap: round;"/>
      <path d="M 12.656700134277344 37.61240005493164 L 12.390299797058105 37.61240005493164" style="stroke: white; stroke-width: 0.432; stroke-linecap: round;"/>
    </g>
  </g>
  <g transform="matrix(-1, 1.2246467991473532e-16, -1.2246467991473532e-16, -1, 57.61530189280165, 64.80060430483718)">
    <g>
      <path d="M 38.42359924316406 20.47410011291504 L 38.42359924316406 4.600069999694824" style="stroke: white; stroke-width: 0.36; stroke-linecap: round;"/>
      <path d="M 38.42359924316406 4.600069999694824 L 38.42359924316406 0.6315590143203735" style="stroke: white; stroke-width: 0.36; stroke-linecap: round;"/>
      <path d="M 38.42359924316406 0.6315590143203735 L 18.581100463867188 0.6315590143203735" style="stroke: white; stroke-width: 0.36; stroke-linecap: round;"/>
      <path d="M 18.581100463867188 0.6315590143203735 L 18.581100463867188 4.600069999694824" style="stroke: white; stroke-width: 0.36; stroke-linecap: round;"/>
      <path d="M 18.581100463867188 4.600069999694824 L 18.581100463867188 20.47410011291504" style="stroke: white; stroke-width: 0.36; stroke-linecap: round;"/>
      <path d="M 18.581100463867188 20.47410011291504 L 38.42359924316406 20.47410011291504" style="stroke: white; stroke-width: 0.36; stroke-linecap: round;"/>
      <path d="M 38.42359924316406 4.600069999694824 L 18.581100463867188 4.600069999694824" style="stroke: white; stroke-width: 0.36; stroke-linecap: round;"/>
    </g>
  </g>
  <g transform="matrix(-1, 1.2246467991473532e-16, -1.2246467991473532e-16, -1, 57.61530189280165, 64.80060430483718)">
    <g/>
  </g>
  <g transform="matrix(-1, 1.2246467991473532e-16, -1.2246467991473532e-16, -1, 57.61530189280165, 64.80060430483718)">
    <g>
      <g transform="matrix(-1, 0, 0, -1, 45.4326, 44.6805)">
        <g>
          <g>
            <rect x="-0.921" y="-1.984" width="1.843" height="3.968" style="stroke: none; fill: white; stroke-width: 0;"/>
          </g>
        </g>
      </g>
      <g transform="matrix(-1, 0, 0, -1, 49.6086, 44.6805)">
        <g>
          <g>
            <rect x="-0.921" y="-1.984" width="1.843" height="3.968" style="stroke: none; fill: white; stroke-width: 0;"/>
          </g>
        </g>
      </g>
    </g>
  </g>
  <g transform="matrix(-1, 1.2246467991473532e-16, -1.2246467991473532e-16, -1, 57.61530189280165, 64.80060430483718)">
    <g>
      <g transform="matrix(-1, 0, 0, -1, 47.5926, 25.9605)">
        <g>
          <g>
            <rect x="-0.921" y="-1.984" width="1.843" height="3.968" style="stroke: none; fill: white; stroke-width: 0;"/>
          </g>
        </g>
      </g>
      <g transform="matrix(-1, 0, 0, -1, 51.7686, 25.9605)">
        <g>
          <g>
            <rect x="-0.921" y="-1.984" width="1.843" height="3.968" style="stroke: none; fill: white; stroke-width: 0;"/>
          </g>
        </g>
      </g>
    </g>
  </g>
  <g transform="matrix(-1, 1.2246467991473532e-16, -1.2246467991473532e-16, -1, 57.61530189280165, 64.80060430483718)">
    <g/>
  </g>
  <g transform="matrix(-1, 1.2246467991473532e-16, -1.2246467991473532e-16, -1, 57.61530189280165, 64.80060430483718)">
    <g/>
  </g>
  <g transform="matrix(-1, 1.2246467991473532e-16, -1.2246467991473532e-16, -1, 57.61530189280165, 64.80060430483718)">
    <g>
      <ellipse cy="7.23629" cx="50.3858" rx="5.10236" ry="5.10236" style="stroke: white; fill: none; stroke-width: 0.576;"/>
    </g>
  </g>
  <g transform="matrix(-1, 1.2246467991473532e-16, -1.2246467991473532e-16, -1, 57.61530189280165, 64.80060430483718)">
    <g>
      <ellipse cy="7.23629" cx="7.18583" rx="5.10236" ry="5.10236" style="stroke: white; fill: none; stroke-width: 0.576;"/>
    </g>
  </g>
  <g transform="matrix(-1, 1.2246467991473532e-16, -1.2246467991473532e-16, -1, 57.61530189280165, 64.80060430483718)">
    <g/>
  </g>
  <rect x="23.242" y="28.836" width="11.088" height="14.4" style="stroke: none; fill-opacity: 1; fill: rgb(51, 51, 51); stroke-width: 0;" transform="matrix(-1, 1.2246467991473532e-16, -1.2246467991473532e-16, -1, 57.61530189280165, 64.80060430483718)"/>
  <g transform="matrix(1, -1.2246467991473532e-16, 1.2246467991473532e-16, 1, 34.694401547953014, 11.448004207180944)">
    <g>
      <g>
        <rect x="9.901" y="24.692" width="3.118" height="3.968" gorn="0.2.0.3.0.0.0" id="connector5pin" style="stroke: none; fill: rgb(154, 145, 108); stroke-width: 0;"/>
      </g>
    </g>
  </g>
  <g transform="matrix(1, -1.2246467991473532e-16, 1.2246467991473532e-16, 1, 46.0329015708412, 11.448004207180944)">
    <g>
      <g>
        <rect x="4.232" y="24.692" width="3.118" height="3.968" gorn="0.2.0.4.0.0.0" id="connector6pin" style="stroke: none; fill: rgb(154, 145, 108); stroke-width: 0;"/>
      </g>
    </g>
  </g>
  <g transform="matrix(1, -1.2246467991473532e-16, 1.2246467991473532e-16, 1, 34.69440154795301, -23.112092533541713)">
    <g>
      <g>
        <rect x="9.901" y="41.972" width="3.118" height="3.968" gorn="0.2.0.5.0.0.0" id="connector7pin" style="stroke: none; fill: rgb(154, 145, 108); stroke-width: 0;"/>
      </g>
    </g>
  </g>
  <g transform="matrix(1, -1.2246467991473532e-16, 1.2246467991473532e-16, 1, 46.03290157084119, -23.112092533541727)">
    <g>
      <g>
        <rect x="4.232" y="41.972" width="3.118" height="3.968" gorn="0.2.0.6.0.0.0" id="connector8pin" style="stroke: none; fill: rgb(154, 145, 108); stroke-width: 0;"/>
      </g>
    </g>
  </g>
  <rect x="24.925" y="22.674" width="3.402" height="3.685" gorn="0.2.0.7" id="connector9pin" style="stroke: none; fill: rgb(154, 145, 108); stroke-width: 0;" transform="matrix(-1, 1.2246467991473532e-16, -1.2246467991473532e-16, -1, 57.61530189280165, 64.80060430483718)"/>
  <rect x="30.685" y="22.674" width="3.402" height="3.685" gorn="0.2.0.8" id="connector10pin" style="stroke: none; fill: rgb(154, 145, 108); stroke-width: 0;" transform="matrix(-1, 1.2246467991473532e-16, -1.2246467991473532e-16, -1, 57.61530189280165, 64.80060430483718)"/>
  <rect x="43.974" y="37.062" width="2.835" height="2.268" gorn="0.2.0.9" id="connector11pin" style="stroke: none; fill: rgb(154, 145, 108); stroke-width: 0;" transform="matrix(-1, 1.2246467991473532e-16, -1.2246467991473532e-16, -1, 57.61530189280165, 64.80060430483718)"/>
  <rect x="49.643" y="37.062" width="2.835" height="2.268" gorn="0.2.0.10" id="connector12pin" style="stroke: none; fill: rgb(154, 145, 108); stroke-width: 0;" transform="matrix(-1, 1.2246467991473532e-16, -1.2246467991473532e-16, -1, 57.61530189280165, 64.80060430483718)"/>
  <rect x="43.974" y="31.302" width="2.835" height="2.268" gorn="0.2.0.11" id="connector13pin" style="stroke: none; fill: rgb(154, 145, 108); stroke-width: 0;" transform="matrix(-1, 1.2246467991473532e-16, -1.2246467991473532e-16, -1, 57.61530189280165, 64.80060430483718)"/>
  <rect x="49.643" y="31.302" width="2.835" height="2.268" gorn="0.2.0.12" id="connector14pin" style="stroke: none; fill: rgb(154, 145, 108); stroke-width: 0;" transform="matrix(-1, 1.2246467991473532e-16, -1.2246467991473532e-16, -1, 57.61530189280165, 64.80060430483718)"/>
  <rect x="2.605" y="17.634" width="3.402" height="3.685" gorn="0.2.0.13" id="connector15pin" style="stroke: none; fill: rgb(154, 145, 108); stroke-width: 0;" transform="matrix(-1, 1.2246467991473532e-16, -1.2246467991473532e-16, -1, 57.61530189280165, 64.80060430483718)"/>
  <rect x="8.365" y="17.634" width="3.402" height="3.685" gorn="0.2.0.14" id="connector16pin" style="stroke: none; fill: rgb(154, 145, 108); stroke-width: 0;" transform="matrix(-1, 1.2246467991473532e-16, -1.2246467991473532e-16, -1, 57.61530189280165, 64.80060430483718)"/>
  <g transform="matrix(1, -1.2246467991473532e-16, 1.2246467991473532e-16, 1, -48.91669578786241, 27.288004359768834)">
    <g>
      <g>
        <rect x="51.565" y="16.914" width="3.402" height="3.685" gorn="0.2.0.15.0.0.0" id="connector17pin" style="stroke: none; fill: rgb(154, 145, 108); stroke-width: 0;"/>
      </g>
    </g>
  </g>
  <g transform="matrix(1, -1.2246467991473532e-16, 1.2246467991473532e-16, 1, -37.396599962667096, 27.288004359768834)">
    <g>
      <g>
        <rect x="45.805" y="16.914" width="3.402" height="3.685" gorn="0.2.0.16.0.0.0" id="connector18pin" style="stroke: none; fill: rgb(154, 145, 108); stroke-width: 0;"/>
      </g>
    </g>
  </g>
  <g transform="matrix(-1.2246467991473532e-16, -1, 1, -1.2246467991473532e-16, 6.905203626200105, 54.238104304837194)">
    <g>
      <g>
        <rect x="19.138" y="27.756" width="1.872" height="5.76" gorn="0.2.0.17.0.0.0" id="connector19pin" style="stroke: none; fill: rgb(154, 145, 108); stroke-width: 0;"/>
      </g>
    </g>
  </g>
  <g transform="matrix(-1.2246467991473532e-16, -1, 1, -1.2246467991473532e-16, 3.3052013373817317, 50.63810392336747)">
    <g>
      <g>
        <rect x="19.138" y="31.356" width="1.872" height="5.76" gorn="0.2.0.18.0.0.0" id="connector20pin" style="stroke: none; fill: rgb(154, 145, 108); stroke-width: 0;"/>
      </g>
    </g>
  </g>
  <g transform="matrix(-1.2246467991473532e-16, -1, 1, -1.2246467991473532e-16, -0.29479713673936203, 47.03810354189774)">
    <g>
      <g>
        <rect x="19.138" y="34.956" width="1.872" height="5.76" gorn="0.2.0.19.0.0.0" id="connector21pin" style="stroke: none; fill: rgb(154, 145, 108); stroke-width: 0;"/>
      </g>
    </g>
  </g>
  <g transform="matrix(-1.2246467991473532e-16, -1, 1, -1.2246467991473532e-16, -3.8947994255577214, 43.43810506777665)">
    <g>
      <g>
        <rect x="19.138" y="38.556" width="1.872" height="5.76" gorn="0.2.0.20.0.0.0" id="connector22pin" style="stroke: none; fill: rgb(154, 145, 108); stroke-width: 0;"/>
      </g>
    </g>
  </g>
  <g transform="matrix(-1.2246467991473532e-16, -1, 1, -1.2246467991473532e-16, -21.319001390889767, 60.86214395480057)">
    <g>
      <g>
        <rect x="36.562" y="38.556" width="1.872" height="5.76" gorn="0.2.0.21.0.0.0" id="connector23pin" style="stroke: none; fill: rgb(154, 145, 108); stroke-width: 0;"/>
      </g>
    </g>
  </g>
  <g transform="matrix(-1.2246467991473532e-16, -1, 1, -1.2246467991473532e-16, -17.718995287374156, 64.46214728670022)">
    <g>
      <g>
        <rect x="36.562" y="34.956" width="1.872" height="5.76" gorn="0.2.0.22.0.0.0" id="connector24pin" style="stroke: none; fill: rgb(154, 145, 108); stroke-width: 0;"/>
      </g>
    </g>
  </g>
  <g transform="matrix(-1.2246467991473532e-16, -1, 1, -1.2246467991473532e-16, -14.118798448995179, 68.06214424090287)">
    <g>
      <g>
        <rect x="36.562" y="31.356" width="1.872" height="5.76" gorn="0.2.0.23.0.0.0" id="connector25pin" style="stroke: none; fill: rgb(154, 145, 108); stroke-width: 0;"/>
      </g>
    </g>
  </g>
  <g transform="matrix(-1.2246467991473532e-16, -1, 1, -1.2246467991473532e-16, -10.518799974874113, 71.66214414553544)">
    <g>
      <g>
        <rect x="36.562" y="27.756" width="1.872" height="5.76" gorn="0.2.0.24.0.0.0" id="connector26pin" style="stroke: none; fill: rgb(154, 145, 108); stroke-width: 0;"/>
      </g>
    </g>
  </g>
  <g transform="matrix(1, -1.2246467991473532e-16, 1.2246467991473532e-16, 1, 34.97790221933974, 1.5381035418977405)">
    <g>
      <g>
        <rect x="10.539" y="29.931" width="1.559" height="3.402" gorn="0.2.0.25.0.0.0" id="connector27pin" style="stroke: none; fill: rgb(154, 145, 108); stroke-width: 0;"/>
      </g>
    </g>
  </g>
  <g transform="matrix(1, -1.2246467991473532e-16, 1.2246467991473532e-16, 1, 40.36370162729872, 1.5381035418977262)">
    <g>
      <g>
        <rect x="7.846" y="29.931" width="1.559" height="3.402" gorn="0.2.0.26.0.0.0" id="connector28pin" style="stroke: none; fill: rgb(154, 145, 108); stroke-width: 0;"/>
      </g>
    </g>
  </g>
  <g transform="matrix(1, -1.2246467991473532e-16, 1.2246467991473532e-16, 1, 45.74950198893202, 1.5381035418977262)">
    <g>
      <g>
        <rect x="5.153" y="29.931" width="1.559" height="3.402" gorn="0.2.0.27.0.0.0" id="connector29pin" style="stroke: none; fill: rgb(154, 145, 108); stroke-width: 0;"/>
      </g>
    </g>
  </g>
  <g transform="matrix(1, -1.2246467991473532e-16, 1.2246467991473532e-16, 1, 45.74950198893202, -13.201997318697977)">
    <g>
      <g>
        <rect x="5.153" y="37.3" width="1.559" height="3.402" gorn="0.2.0.28.0.0.0" id="connector30pin" style="stroke: none; fill: rgb(154, 145, 108); stroke-width: 0;"/>
      </g>
    </g>
  </g>
  <g transform="matrix(1, -1.2246467991473532e-16, 1.2246467991473532e-16, 1, 34.97790221933974, -13.201997318697963)">
    <g>
      <g>
        <rect x="10.539" y="37.3" width="1.559" height="3.402" gorn="0.2.0.29.0.0.0" id="connector31pin" style="stroke: none; fill: rgb(154, 145, 108); stroke-width: 0;"/>
      </g>
    </g>
  </g>
  <ellipse cy="10.8363" cx="23.6835" rx="2.25666" ry="2.25666" connectorname="THERMO-" style="stroke: rgb(154, 145, 108); fill: none; stroke-width: 1.67868;" transform="matrix(-1, 1.2246467991473532e-16, -1.2246467991473532e-16, -1, 57.61530189280165, 64.80060430483718)"/>
  <ellipse cy="10.8363" cx="33.6047" rx="2.25666" ry="2.25666" connectorname="THERMO+" style="stroke: rgb(154, 145, 108); fill: none; stroke-width: 1.67868;" transform="matrix(-1, 1.2246467991473532e-16, -1.2246467991473532e-16, -1, 57.61530189280165, 64.80060430483718)"/>
  <ellipse gorn="0.2.0.32" cy="59.0763" cx="10.7858" rx="2.07666" ry="2.07666" connectorname="VIN" id="connector34pin" style="stroke: rgb(154, 145, 108); fill: none; stroke-width: 1.31868;" transform="matrix(-1, 1.2246467991473532e-16, -1.2246467991473532e-16, -1, 57.61530189280165, 64.80060430483718)"/>
  <ellipse gorn="0.2.0.33" cy="59.0763" cx="17.9858" rx="2.07666" ry="2.07666" connectorname="+3V3" id="connector35pin" style="stroke: rgb(154, 145, 108); fill: none; stroke-width: 1.31868;" transform="matrix(-1, 1.2246467991473532e-16, -1.2246467991473532e-16, -1, 57.61530189280165, 64.80060430483718)"/>
  <ellipse gorn="0.2.0.34" cy="59.0763" cx="25.1858" rx="2.07666" ry="2.07666" connectorname="GND" id="connector36pin" style="stroke: rgb(154, 145, 108); fill: none; stroke-width: 1.31868;" transform="matrix(-1, 1.2246467991473532e-16, -1.2246467991473532e-16, -1, 57.61530189280165, 64.80060430483718)"/>
  <ellipse gorn="0.2.0.35" cy="59.0763" cx="32.3858" rx="2.07666" ry="2.07666" connectorname="DO" id="connector37pin" style="stroke: rgb(154, 145, 108); fill: none; stroke-width: 1.31868;" transform="matrix(-1, 1.2246467991473532e-16, -1.2246467991473532e-16, -1, 57.61530189280165, 64.80060430483718)"/>
  <ellipse gorn="0.2.0.36" cy="59.0763" cx="39.5858" rx="2.07666" ry="2.07666" connectorname="CS" id="connector38pin" style="stroke: rgb(154, 145, 108); fill: none; stroke-width: 1.31868;" transform="matrix(-1, 1.2246467991473532e-16, -1.2246467991473532e-16, -1, 57.61530189280165, 64.80060430483718)"/>
  <ellipse gorn="0.2.0.37" cy="59.0763" cx="46.7858" rx="2.07666" ry="2.07666" connectorname="CLK" id="connector39pin" style="stroke: rgb(154, 145, 108); fill: none; stroke-width: 1.31868;" transform="matrix(-1, 1.2246467991473532e-16, -1.2246467991473532e-16, -1, 57.61530189280165, 64.80060430483718)"/>
  <g transform="matrix(1, -1.2246467991473532e-16, 1.2246467991473532e-16, 1, -43.06569786305772, -24.552094974947963)">
    <g>
      <g>
        <rect x="48.781" y="42.692" width="3.118" height="3.968" gorn="0.2.0.38.0.0.0" id="connector40pin" style="stroke: none; fill: rgb(154, 145, 108); stroke-width: 0;"/>
      </g>
    </g>
  </g>
  <g transform="matrix(1, -1.2246467991473532e-16, 1.2246467991473532e-16, 1, -31.727296068624142, -24.552094974947963)">
    <g>
      <g>
        <rect x="43.112" y="42.692" width="3.118" height="3.968" gorn="0.2.0.39.0.0.0" id="connector41pin" style="stroke: none; fill: rgb(154, 145, 108); stroke-width: 0;"/>
      </g>
    </g>
  </g>
  <g transform="matrix(1, -1.2246467991473532e-16, 1.2246467991473532e-16, 1, -47.38569755788194, 12.888002833889928)">
    <g>
      <g>
        <rect x="50.941" y="23.972" width="3.118" height="3.968" gorn="0.2.0.40.0.0.0" id="connector42pin" style="stroke: none; fill: rgb(154, 145, 108); stroke-width: 0;"/>
      </g>
    </g>
  </g>
  <g transform="matrix(1, -1.2246467991473532e-16, 1.2246467991473532e-16, 1, -36.04729576344832, 12.888002833889928)">
    <g>
      <g>
        <rect x="45.272" y="23.972" width="3.118" height="3.968" gorn="0.2.0.41.0.0.0" id="connector43pin" style="stroke: none; fill: rgb(154, 145, 108); stroke-width: 0;"/>
      </g>
    </g>
  </g>
  <rect x="41.193" y="1.787" width="2.835" height="2.835" rx="1.417" ry="1.417" gorn="0.2.0.42" id="connector44pin" style="stroke: none; fill: rgb(154, 145, 108); stroke-width: 0;" transform="matrix(-1, 1.2246467991473532e-16, -1.2246467991473532e-16, -1, 57.61530189280165, 64.80060430483718)"/>
  <rect x="4.041" y="50.819" width="2.835" height="2.835" rx="1.417" ry="1.417" gorn="0.2.0.43" id="connector45pin" style="stroke: none; fill: rgb(154, 145, 108); stroke-width: 0;" transform="matrix(-1, 1.2246467991473532e-16, -1.2246467991473532e-16, -1, 57.61530189280165, 64.80060430483718)"/>
  <ellipse gorn="0.2.0.44" cy="7.23629" cx="50.3858" rx="3.83811" ry="3.83811" connectorname="P$1" id="connector46pin" style="stroke: rgb(154, 145, 108); fill: none; stroke-width: 1.44;" transform="matrix(-1, 1.2246467991473532e-16, -1.2246467991473532e-16, -1, 57.61530189280165, 64.80060430483718)"/>
  <ellipse gorn="0.2.0.45" cy="7.23629" cx="7.18583" rx="3.83811" ry="3.83811" connectorname="P$1" id="connector47pin" style="stroke: rgb(154, 145, 108); fill: none; stroke-width: 1.44;" transform="matrix(-1, 1.2246467991473532e-16, -1.2246467991473532e-16, -1, 57.61530189280165, 64.80060430483718)"/>
  <g transform="matrix(-1, 1.2246467991473532e-16, -1.2246467991473532e-16, -1, 51.8239720321144, 39.89580388979812)">
    <g>
      <g gorn="0.2.1.0.0" id="c0805k">
        <g transform="matrix(-1, 0, 0, -1, 5.669, 3.543)">
          <g>
            <g>
              <path d="M5.386,3.543L0.283,3.543C0.127,3.543,0,3.416,0,3.26L0,0.283C0,0.127,0.127,0,0.283,0l5.102,0c0.157,0,0.283,0.127,0.283,0.283L5.668,3.26C5.669,3.416,5.542,3.543,5.386,3.543z" style="fill: rgb(220, 220, 220);"/>
              <rect x="1.063" width="3.543" height="3.543" style="fill: rgb(110, 85, 75);"/>
            </g>
          </g>
        </g>
      </g>
    </g>
  </g>
  <g transform="matrix(-1, 1.2246467991473532e-16, -1.2246467991473532e-16, -1, 51.82397203211439, 22.61580511050125)">
    <g>
      <g gorn="0.2.2.0.0" id="c0805k">
        <g transform="matrix(-1, 0, 0, -1, 5.669, 3.543)">
          <g>
            <g>
              <path d="M5.386,3.543L0.283,3.543C0.127,3.543,0,3.416,0,3.26L0,0.283C0,0.127,0.127,0,0.283,0l5.102,0c0.157,0,0.283,0.127,0.283,0.283L5.668,3.26C5.669,3.416,5.542,3.543,5.386,3.543z" style="fill: rgb(220, 220, 220);"/>
              <rect x="1.063" width="3.543" height="3.543" style="fill: rgb(110, 85, 75);"/>
            </g>
          </g>
        </g>
      </g>
    </g>
  </g>
  <g transform="matrix(-1, 1.2246467991473532e-16, -1.2246467991473532e-16, -1, 30.944001004740123, 42.05580373721023)">
    <g>
      <g gorn="0.2.3.0.0" id="_0805">
        <path d="M5.386,3.543L0.283,3.543C0.127,3.543,0,3.416,0,3.26L0,0.283C0,0.127,0.127,0,0.283,0l5.102,0c0.157,0,0.283,0.127,0.283,0.283L5.668,3.26C5.669,3.416,5.542,3.543,5.386,3.543z" style="fill: rgb(220, 220, 220);"/>
        <rect x="1.063" width="3.543" height="3.543" style="fill: rgb(110, 85, 75);"/>
      </g>
    </g>
  </g>
  <g transform="matrix(-1, 1.2246467991473532e-16, -1.2246467991473532e-16, -1, 12.9330013251747, 28.375803432034452)">
    <g>
      <g gorn="0.2.4.0.0" id="sod-323f">
        <rect y="1.346" width="7.087" height="0.85" gorn="0.2.4.0.0.2" id="rect3" style="fill: rgb(220, 220, 220);"/>
        <rect x="1.134" width="4.819" height="3.543" gorn="0.2.4.0.0.3" id="rect5" style="fill: rgb(48, 48, 48);"/>
        <rect x="1.559" y="0.012" width="0.633" height="3.556" gorn="0.2.4.0.0.4" id="rect3339" style="fill: rgb(102, 102, 102);"/>
      </g>
    </g>
  </g>
  <g transform="matrix(-1, 1.2246467991473532e-16, -1.2246467991473532e-16, -1, 12.9330013251747, 34.135803660916295)">
    <g>
      <g gorn="0.2.5.0.0" id="sod-323f">
        <rect y="1.346" width="7.087" height="0.85" gorn="0.2.5.0.0.2" id="rect3" style="fill: rgb(220, 220, 220);"/>
        <rect x="1.134" width="4.819" height="3.543" gorn="0.2.5.0.0.3" id="rect5" style="fill: rgb(48, 48, 48);"/>
        <rect x="1.559" y="0.012" width="0.633" height="3.556" gorn="0.2.5.0.0.4" id="rect3339" style="fill: rgb(102, 102, 102);"/>
      </g>
    </g>
  </g>
  <g transform="matrix(-1, 1.2246467991473532e-16, -1.2246467991473532e-16, -1, 53.26397208933486, 47.09580465273757)">
    <g>
      <g gorn="0.2.6.0.0" id="_0805">
        <path d="M5.386,3.543L0.283,3.543C0.127,3.543,0,3.416,0,3.26L0,0.283C0,0.127,0.127,0,0.283,0l5.102,0c0.157,0,0.283,0.127,0.283,0.283L5.668,3.26C5.669,3.416,5.542,3.543,5.386,3.543z" style="fill: rgb(220, 220, 220);"/>
        <rect x="1.063" width="3.543" height="3.543" style="fill: rgb(110, 85, 75);"/>
      </g>
    </g>
  </g>
  <g transform="matrix(-1, 1.2246467991473532e-16, -1.2246467991473532e-16, -1, 10.064001843973557, 47.815803966092076)">
    <g>
      <g gorn="0.2.7.0.0" id="_0805">
        <g transform="matrix(-1, 0, 0, -1, 5.669, 3.543)">
          <g>
            <g>
              <path d="M5.386,3.543L0.283,3.543C0.127,3.543,0,3.416,0,3.26L0,0.283C0,0.127,0.127,0,0.283,0l5.102,0c0.157,0,0.283,0.127,0.283,0.283L5.668,3.26C5.669,3.416,5.542,3.543,5.386,3.543z" style="fill: rgb(220, 220, 220);"/>
              <rect x="1.063" width="3.543" height="3.543" style="fill: rgb(110, 85, 75);"/>
            </g>
          </g>
        </g>
      </g>
    </g>
  </g>
  <g transform="matrix(-1, 1.2246467991473532e-16, -1.2246467991473532e-16, -1, 53.09948186640394, 33.311304530667265)">
    <g>
      <g gorn="0.2.8.0.0" id="sot23-5l">
        <g transform="matrix(-1, 0, 0, -1, 8.22002, 7.65403)">
          <g>
            <g>
              <g>
                <rect x="0.85" width="1.134" height="7.654" style="fill: rgb(220, 220, 220);"/>
                <rect x="6.236" width="1.134" height="7.654" style="fill: rgb(220, 220, 220);"/>
                <rect x="3.543" y="4.535" width="1.134" height="3.118" style="fill: rgb(220, 220, 220);"/>
                <rect y="1.559" width="8.22" height="4.535" style="fill: rgb(48, 48, 48);"/>
              </g>
            </g>
          </g>
        </g>
      </g>
    </g>
  </g>
  <g transform="matrix(-1, 1.2246467991473532e-16, -1.2246467991473532e-16, -1, 40.168202207132715, 64.16906132416625)">
    <g>
      <g gorn="0.2.9.0.0" id="1x2-3.5mm">
        <g transform="matrix(-1, 0, 0, -1, 22.1105, 19.8426)">
          <g>
            <g>
              <rect x="18.709" y="12.189" width="2.268" height="5.102" gorn="0.2.9.0.0.0.0.0.2" id="rect3" style="fill: rgb(12, 56, 120);"/>
              <rect x="19.843" y="1.134" width="2.268" height="2.268" gorn="0.2.9.0.0.0.0.0.3" id="rect5" style="fill: rgb(12, 56, 120);"/>
              <g transform="scale(1.2499696,1.2499696)">
                <g>
                  <path gorn="0.2.9.0.0.0.0.0.4.0.0" id="polygon7" d="M 16.780799865722656 0 L 0.907200038433075 0 L 0.907200038433075 10.88479995727539 L 0 10.88479995727539 L 0 12.699199676513672 L 0.907200038433075 12.699199676513672 L 0.907200038433075 14.739999771118164 L 16.780799865722656 14.739999771118164 L 16.780799865722656 12.699199676513672 L 15.87440013885498 12.699199676513672 L 15.87440013885498 10.88479995727539 L 16.780799865722656 10.88479995727539 Z" style="fill: rgb(1, 93, 217);"/>
                </g>
              </g>
              <ellipse gorn="0.2.9.0.0.0.0.0.5" cy="9.92074" cx="6.09485" rx="3.68491" ry="3.68491" id="circle9" style="fill: rgb(180, 180, 180);"/>
              <ellipse gorn="0.2.9.0.0.0.0.0.6" cy="9.92074" cx="16.0156" rx="3.68491" ry="3.68491" id="circle11" style="fill: rgb(180, 180, 180);"/>
              <rect x="2.551" y="1.417" width="7.37" height="2.835" gorn="0.2.9.0.0.0.0.0.7" id="rect13" style="fill: rgb(12, 56, 120);"/>
              <rect x="11.339" y="1.417" width="7.37" height="2.835" gorn="0.2.9.0.0.0.0.0.8" id="rect15" style="fill: rgb(12, 56, 120);"/>
              <g transform="scale(1.2499696,1.2499696)">
                <g>
                  <path gorn="0.2.9.0.0.0.0.0.9.0.0" id="polygon17" d="M 0.907200038433075 15.87440013885498 L 3.7416000366210938 15.87440013885498 L 3.7416000366210938 14.471199989318848 L 6.0096001625061035 14.471199989318848 L 6.0096001625061035 15.87440013885498 L 11.678400039672852 15.87440013885498 L 11.678400039672852 14.471199989318848 L 13.946399688720703 14.471199989318848 L 13.946399688720703 15.87440013885498 L 16.780799865722656 15.87440013885498 L 16.780799865722656 13.606399536132812 L 0.907200038433075 13.606399536132812 Z" style="fill: rgb(12, 56, 120);"/>
                </g>
              </g>
              <rect x="1.843" y="17.805" width="8.504" height="1.701" gorn="0.2.9.0.0.0.0.0.10" id="connector33pin" style="fill: rgb(140, 140, 140);"/>
              <rect x="11.764" y="17.805" width="8.504" height="1.701" gorn="0.2.9.0.0.0.0.0.11" id="connector32pin" style="fill: rgb(140, 140, 140);"/>
              <path d="m6.18185,6.96283,-1.64296,0.439989,0.513988,1.91696,-2.63294,0.705983c0.00800323,0.281993,0.0389992,0.564986,0.114997,0.848981,0.0759982,0.283992,0.190995,0.544987,0.324992,0.792979l2.63294,-0.705982,0.513988,1.91695,1.64296,-0.43999,-0.513988,-1.91695,2.63294,-0.705984c-0.00802397,-0.280993,-0.038992,-0.564985,-0.114998,-0.84798,-0.0760003,-0.282994,-0.190995,-0.545988,-0.324992,-0.79398L6.69583,8.87976,6.18185,6.96283Z" gorn="0.2.9.0.0.0.0.0.12" connector-curvature="0" id="path23" style="fill: rgb(100, 100, 100);"/>
              <path d="m13.4977,8.36582,-0.43999,1.64296,1.91695,0.513988,-0.705982,2.63294c0.247994,0.133996,0.508987,0.248993,0.792979,0.324992,0.283992,0.0760003,0.567986,0.106997,0.848981,0.114997l0.705983,-2.63294,1.91696,0.513987,0.439989,-1.64296,-1.91696,-0.513987,0.705983,-2.63294C17.5146,6.55284,17.2536,6.43784,16.9696,6.36185,16.6856,6.28584,16.4016,6.25485,16.1206,6.24685L15.4136,8.87976,13.4977,8.36582Z" gorn="0.2.9.0.0.0.0.0.13" connector-curvature="0" id="path25" style="fill: rgb(100, 100, 100);"/>
            </g>
          </g>
        </g>
      </g>
    </g>
  </g>
  <g transform="matrix(-1, 1.2246467991473532e-16, -1.2246467991473532e-16, -1, 12.944002912088763, 21.895803889798124)">
    <g>
      <g gorn="0.2.10.0.0" id="0805-res">
        <g transform="matrix(-1, 0, 0, -1, 5.669, 3.543)">
          <g>
            <g>
              <path d="M5.386,3.543L0.283,3.543C0.127,3.543,0,3.416,0,3.26L0,0.283C0,0.127,0.127,0,0.283,0l5.102,0c0.157,0,0.283,0.127,0.283,0.283L5.668,3.26C5.669,3.416,5.542,3.543,5.386,3.543z" style="fill: rgb(220, 220, 220);"/>
              <rect x="1.063" width="3.543" height="3.543" style="fill: rgb(51, 51, 51);"/>
            </g>
          </g>
        </g>
      </g>
    </g>
  </g>
  <g transform="matrix(-1, 1.2246467991473532e-16, -1.2246467991473532e-16, -1, 10.784003064676668, 40.615805110501256)">
    <g>
      <g gorn="0.2.11.0.0" id="0805-res">
        <g transform="matrix(-1, 0, 0, -1, 5.669, 3.543)">
          <g>
            <g>
              <path d="M5.386,3.543L0.283,3.543C0.127,3.543,0,3.416,0,3.26L0,0.283C0,0.127,0.127,0,0.283,0l5.102,0c0.157,0,0.283,0.127,0.283,0.283L5.668,3.26C5.669,3.416,5.542,3.543,5.386,3.543z" style="fill: rgb(220, 220, 220);"/>
              <rect x="1.063" width="3.543" height="3.543" style="fill: rgb(51, 51, 51);"/>
            </g>
          </g>
        </g>
      </g>
    </g>
  </g>
</svg>